<svg id="Card" xmlns="http://www.w3.org/2000/svg" viewBox="0 0 615.17 350"><defs><style>.cls-1{fill:#999;}.cls-2{fill:#6d6f73;}.cls-2,.cls-3,.cls-4{stroke:#000;stroke-miterlimit:10;stroke-width:2px;}.cls-3{fill:#5b5b5b;}.cls-4{fill:#fff;}.cls-5{font-size:16px;font-family:MyriadPro-Regular, Myriad Pro;}.cls-6{letter-spacing:0.01em;}.cls-7{letter-spacing:0.02em;}</style></defs><g id="Cuerpo"><rect class="cls-1" x="1.17" y="1" width="613" height="348" rx="48.94"/><path d="M607.56,52A48,48,0,0,1,655.5,99.94V350.06A48,48,0,0,1,607.56,398H92.44A48,48,0,0,1,44.5,350.06V99.94A48,48,0,0,1,92.44,52H607.56m0-2H92.44A49.94,49.94,0,0,0,42.5,99.94V350.06A49.94,49.94,0,0,0,92.44,400H607.56a49.94,49.94,0,0,0,49.94-49.94V99.94A49.94,49.94,0,0,0,607.56,50Z" transform="translate(-42.33 -50)"/><path class="cls-2" d="M43.39,308l.14-91.13L168.61,308l124.72,90.87h-200a50,50,0,0,1-50-47.39Z" transform="translate(-42.33 -50)"/></g><rect class="cls-3" x="1.67" y="75" width="480" height="50"/><rect class="cls-4" x="431.67" y="75" width="50" height="50"/><text class="cls-5" transform="translate(442.41 91.83) scale(1.07 1)"><tspan class="cls-6">C</tspan><tspan class="cls-7" x="9.47" y="0">V</tspan><tspan x="18.66" y="0">V</tspan></text></svg>