<svg id="Card" xmlns="http://www.w3.org/2000/svg" viewBox="0 0 615.17 350"><defs><style>.cls-1{fill:#999;}.cls-2{fill:#6d6f73;}.cls-2,.cls-4{stroke:#000;stroke-miterlimit:10;stroke-width:2px;}.cls-3{fill:#f5bd02;}.cls-4{fill:#6b1fff;}</style></defs><g id="Cuerpo"><rect class="cls-1" x="1" y="1" width="613" height="348" rx="48.94"/><path d="M757.56,192a48,48,0,0,1,47.94,47.94V490.06A48,48,0,0,1,757.56,538H242.44a48,48,0,0,1-47.94-47.94V239.94A48,48,0,0,1,242.44,192H757.56m0-2H242.44a49.94,49.94,0,0,0-49.94,49.94V490.06A49.94,49.94,0,0,0,242.44,540H757.56a49.94,49.94,0,0,0,49.94-49.94V239.94A49.94,49.94,0,0,0,757.56,190Z" transform="translate(-192.5 -190)"/><path class="cls-2" d="M806.61,448l-.14-91.13L681.39,448,556.67,538.88h200a50,50,0,0,0,50-47.39Z" transform="translate(-192.5 -190)"/></g><g id="Chip"><rect class="cls-3" x="61.5" y="61" width="78" height="78" rx="17.24"/><path d="M314.76,252A16.26,16.26,0,0,1,331,268.24v43.52A16.26,16.26,0,0,1,314.76,328H271.24A16.26,16.26,0,0,1,255,311.76V268.24A16.26,16.26,0,0,1,271.24,252h43.52m0-2H271.24A18.24,18.24,0,0,0,253,268.24v43.52A18.24,18.24,0,0,0,271.24,330h43.52A18.24,18.24,0,0,0,333,311.76V268.24A18.24,18.24,0,0,0,314.76,250Z" transform="translate(-192.5 -190)"/><path class="cls-3" d="M255,314a1,1,0,0,1-1-1V267a1,1,0,0,1,1-1h20a7,7,0,0,1,7,7v34a7,7,0,0,1-7,7Z" transform="translate(-192.5 -190)"/><path d="M275,267a6,6,0,0,1,6,6v34a6,6,0,0,1-6,6H255V267h20m0-2H255a2,2,0,0,0-2,2v46a2,2,0,0,0,2,2h20a8,8,0,0,0,8-8V273a8,8,0,0,0-8-8Z" transform="translate(-192.5 -190)"/><path class="cls-3" d="M311,314a7,7,0,0,1-7-7V273a7,7,0,0,1,7-7h20a1,1,0,0,1,1,1v46a1,1,0,0,1-1,1Z" transform="translate(-192.5 -190)"/><path d="M331,267v46H311a6,6,0,0,1-6-6V273a6,6,0,0,1,6-6h20m0-2H311a8,8,0,0,0-8,8v34a8,8,0,0,0,8,8h20a2,2,0,0,0,2-2V267a2,2,0,0,0-2-2Z" transform="translate(-192.5 -190)"/><rect class="cls-3" x="89.5" y="89" width="22" height="22"/><path d="M303,280v20H283V280h20m2-2H281v24h24V278Z" transform="translate(-192.5 -190)"/><path class="cls-4" d="M303,290h0Z" transform="translate(-192.5 -190)"/><path class="cls-4" d="M253.06,290h0Z" transform="translate(-192.5 -190)"/><path class="cls-4" d="M276,267v0Z" transform="translate(-192.5 -190)"/><path class="cls-4" d="M276,330v0Z" transform="translate(-192.5 -190)"/><path class="cls-4" d="M312,330v0Z" transform="translate(-192.5 -190)"/><path class="cls-4" d="M312,267v0Z" transform="translate(-192.5 -190)"/></g></svg>